<svg xmlns="http://www.w3.org/2000/svg" width="1706.667" height="1501.333" viewBox="0 0 1280 1126" preserveAspectRatio="xMidYMid meet"><path d="M620.1 2c-4.1 1-11.3 3.7-16 6.1-7 3.5-10.5 6.2-18.7 14.4-6.1 6-12.4 13.4-15.7 18.5-8.5 13.2-68.1 118.2-296.2 521.5l-204.7 362-63.1 113.1c-7.9 18.7-7.2 39.4 1.9 55.9 1.5 2.8 6.4 8.6 10.8 13 9.1 9 17.7 13.9 30.6 17.5l7.6 2 587.9-.2 588-.3 8.1-2.7c36.3-12.4 49.4-49.9 30.4-87.8-2.1-4.3-89.9-158-195.1-341.7L796.8 206 702.2 42.5c-11.8-17.7-26.8-31.1-41.9-37.3C647.8 0 633.1-1.2 620.1 2zm160.7 341l272.4 475.5 128.3 224-271.2.3H367.6l-271.5-.3L262.7 748 636.1 90.8c.4.4 65.5 113.9 144.7 252.2zM629 338.6c-1.4.3-6.1 1.4-10.4 2.5-39 9.8-70.6 47.4-70.6 83.7 0 4.6 2.2 25.4 5 46.1l19 144.6 21.6 158.1c4.2 16.5 14.1 29.7 27.1 36.1 6.7 3.3 8.6 3.8 16.8 4.1 15.2.7 24.6-3 34.8-13.6 9.9-10.5 14.4-22.4 17.6-46.4l11.1-84.1 18-137.5 11.1-84c2.4-18.2 2.5-30.5.4-38.7-8.2-32.3-36-59.9-69.3-68.6-7.5-2-26.6-3.3-32.2-2.3zm3.2 513.5c-34.5 4.4-59.4 37.1-55.2 72.6 2 16.6 8.6 30.1 20.4 41 11.4 10.7 23.7 16 39.1 17 18.7 1.1 33.6-4.7 47.5-18.7 13.4-13.4 19.2-27.3 19.3-46.5.1-11.6-1.3-18.3-5.8-28-12-26.1-37.9-40.9-65.3-37.4z"/></svg>