<svg xmlns="http://www.w3.org/2000/svg" height="92.5" width="93" fill="#1a1a1a"><path d="M93 36.25a3.75 3.75 0 1 1-7.5 0 3.75 3.75 0 1 1 7.5 0zm-7.5-9.783c0 1.951 1.582 3.533 3.533 3.533h.434C91.418 30 93 28.418 93 26.467V3.533C93 1.582 91.418 0 89.467 0h-.434C87.082 0 85.5 1.582 85.5 3.533zm4.5.033v-23h0zM24.75 60a2.25 2.25 0 0 0-2.25 2.25v3a2.25 2.25 0 0 0 2.25 2.25h35.5a2.25 2.25 0 0 0 2.25-2.25v-3A2.25 2.25 0 0 0 60.25 60zm.25 4.5h35 0zm37.5-25.75a6.25 6.25 0 1 1-12.5 0 6.25 6.25 0 1 1 12.5 0zm-27.5 0a6.25 6.25 0 1 1-12.5 0 6.25 6.25 0 1 1 12.5 0zM42.5 7.5C19.067 7.5 0 26.567 0 50s19.067 42.5 42.5 42.5S85 73.433 85 50 65.933 7.5 42.5 7.5zm0 6.527c19.906 0 35.973 16.067 35.973 35.973S62.406 85.973 42.5 85.973 6.527 69.906 6.527 50 22.594 14.027 42.5 14.027z" fill="#000"/></svg>